<?xml version="1.0" encoding="UTF-8"?>
<svg xmlns="http://www.w3.org/2000/svg" width="1280" height="800" viewBox="0 0 1280 800" role="img">
  <defs>
    <linearGradient id="heroGradient" x1="0" y1="0" x2="1" y2="1">
      <stop offset="0%" stop-color="#EFF6FF"/>
      <stop offset="48%" stop-color="#F8FAFC"/>
      <stop offset="100%" stop-color="#CCFBF1"/>
    </linearGradient>
    <linearGradient id="blueGradient" x1="0" y1="0" x2="1" y2="1">
      <stop offset="0%" stop-color="#2563EB"/>
      <stop offset="100%" stop-color="#14B8A6"/>
    </linearGradient>
    <filter id="softShadow" x="-20%" y="-20%" width="140%" height="140%">
      <feDropShadow dx="0" dy="18" stdDeviation="20" flood-color="#0F172A" flood-opacity="0.18"/>
    </filter>
    <filter id="cardShadow" x="-20%" y="-20%" width="140%" height="140%">
      <feDropShadow dx="0" dy="10" stdDeviation="12" flood-color="#0F172A" flood-opacity="0.16"/>
    </filter>
  </defs>
  <rect width="1280" height="800" fill="url(#heroGradient)"/>


    <g filter="url(#softShadow)">
      <rect x="74" y="70" width="850" height="560" rx="22" fill="#FFFFFF" stroke="#E2E8F0" stroke-width="2"/>
      <rect x="74" y="70" width="850" height="62" rx="22" fill="#F1F5F9" stroke="none" stroke-width="0"/>
      <path d="M74 132H924" stroke="#E2E8F0" stroke-width="2"/>
      <circle cx="104" cy="101" r="8" fill="#EF4444"/>
      <circle cx="130" cy="101" r="8" fill="#F59E0B"/>
      <circle cx="156" cy="101" r="8" fill="#22C55E"/>
      <rect x="192" y="86" width="700" height="30" rx="15" fill="#FFFFFF" stroke="#CBD5E1" stroke-width="1"/>
      <text x="214" y="108" font-family="Segoe UI, Inter, Arial, sans-serif" font-size="14" font-weight="500" fill="#64748B" text-anchor="start"><tspan x="214" dy="0">https://example.com/article</tspan></text>
      <text x="110" y="180" font-family="Segoe UI, Inter, Arial, sans-serif" font-size="28" font-weight="700" fill="#172033" text-anchor="start"><tspan x="110" dy="0">Helpful article about browser windows</tspan></text>
    </g>

    <text x="120" y="235" font-family="Segoe UI, Inter, Arial, sans-serif" font-size="34" font-weight="800" fill="#172033" text-anchor="start"><tspan x="120" dy="0">Right-click any supported target</tspan></text>
    <text x="120" y="282" font-family="Segoe UI, Inter, Arial, sans-serif" font-size="23" font-weight="500" fill="#334155" text-anchor="start"><tspan x="120" dy="0">Choose “Open in Basic Window” from the context menu.</tspan></text>
    <a>
      <rect x="120" y="335" width="430" height="74" rx="16" fill="#EFF6FF" stroke="#93C5FD" stroke-width="2"/>
      <text x="150" y="381" font-family="Segoe UI, Inter, Arial, sans-serif" font-size="24" font-weight="700" fill="#2563EB" text-anchor="start"><tspan x="150" dy="0">https://example.com/reference</tspan></text>
    </a>

    <g filter="url(#cardShadow)">
      <rect x="690" y="310" width="330" height="292" rx="16" fill="#FFFFFF" stroke="#CBD5E1" stroke-width="1"/>


    <text x="714" y="332" font-family="Segoe UI, Inter, Arial, sans-serif" font-size="20" font-weight="500" fill="#334155" text-anchor="start"><tspan x="714" dy="0">Back</tspan></text>



    <text x="714" y="376" font-family="Segoe UI, Inter, Arial, sans-serif" font-size="20" font-weight="500" fill="#334155" text-anchor="start"><tspan x="714" dy="0">Reload</tspan></text>

      <path d="M708 428H1002" stroke="#E2E8F0"/>
      <rect x="702" y="442" width="306" height="44" rx="10" fill="#DBEAFE" stroke="none" stroke-width="0"/>

    <g transform="translate(714 448) scale(0.21875)">
  <g fill="none" stroke-linecap="round" stroke-linejoin="round">
    <rect x="18" y="26" width="74" height="68" rx="10" fill="#F8FAFC" stroke="#FFFFFF" stroke-width="12"/>
    <rect x="18" y="26" width="74" height="68" rx="10" fill="#F8FAFC" stroke="#172033" stroke-width="6"/>
    <path d="M21 44h68" stroke="#172033" stroke-width="6"/>
    <circle cx="34" cy="35" r="3.5" fill="#14B8A6" stroke="#172033" stroke-width="3"/>
    <circle cx="47" cy="35" r="3.5" fill="#F59E0B" stroke="#172033" stroke-width="3"/>
    <path d="M38 59h28" stroke="#94A3B8" stroke-width="6"/>
    <path d="M38 74h18" stroke="#CBD5E1" stroke-width="6"/>
    <path d="M61 80 101 40" stroke="#FFFFFF" stroke-width="18"/>
    <path d="M79 39h23v23" stroke="#FFFFFF" stroke-width="18"/>
    <path d="M61 80 101 40" stroke="#2563EB" stroke-width="10"/>
    <path d="M79 39h23v23" stroke="#2563EB" stroke-width="10"/>
  </g>
</g>
    <text x="756" y="472" font-family="Segoe UI, Inter, Arial, sans-serif" font-size="20" font-weight="700" fill="#1E3A8A" text-anchor="start"><tspan x="756" dy="0">Open in Basic Window</tspan></text>

      <path d="M708 504H1002" stroke="#E2E8F0"/>


    <text x="714" y="548" font-family="Segoe UI, Inter, Arial, sans-serif" font-size="20" font-weight="500" fill="#334155" text-anchor="start"><tspan x="714" dy="0">Copy link address</tspan></text>



    <text x="714" y="592" font-family="Segoe UI, Inter, Arial, sans-serif" font-size="20" font-weight="500" fill="#334155" text-anchor="start"><tspan x="714" dy="0">Inspect</tspan></text>

    </g>

    <g transform="translate(990 96) scale(1.09375)">
  <g fill="none" stroke-linecap="round" stroke-linejoin="round">
    <rect x="18" y="26" width="74" height="68" rx="10" fill="#F8FAFC" stroke="#FFFFFF" stroke-width="12"/>
    <rect x="18" y="26" width="74" height="68" rx="10" fill="#F8FAFC" stroke="#172033" stroke-width="6"/>
    <path d="M21 44h68" stroke="#172033" stroke-width="6"/>
    <circle cx="34" cy="35" r="3.5" fill="#14B8A6" stroke="#172033" stroke-width="3"/>
    <circle cx="47" cy="35" r="3.5" fill="#F59E0B" stroke="#172033" stroke-width="3"/>
    <path d="M38 59h28" stroke="#94A3B8" stroke-width="6"/>
    <path d="M38 74h18" stroke="#CBD5E1" stroke-width="6"/>
    <path d="M61 80 101 40" stroke="#FFFFFF" stroke-width="18"/>
    <path d="M79 39h23v23" stroke="#FFFFFF" stroke-width="18"/>
    <path d="M61 80 101 40" stroke="#2563EB" stroke-width="10"/>
    <path d="M79 39h23v23" stroke="#2563EB" stroke-width="10"/>
  </g>
</g>
    <text x="1090" y="285" font-family="Segoe UI, Inter, Arial, sans-serif" font-size="42" font-weight="800" fill="#172033" text-anchor="middle"><tspan x="1090" dy="0">Open in Basic</tspan><tspan x="1090" dy="52.5">Window</tspan></text>
    <text x="1140" y="385" font-family="Segoe UI, Inter, Arial, sans-serif" font-size="23" font-weight="600" fill="#334155" text-anchor="middle"><tspan x="1140" dy="0">Links • Media •</tspan><tspan x="1140" dy="28.75">Frames • Pages •</tspan><tspan x="1140" dy="28.75">Tabs</tspan></text>

</svg>
